<svg style="height: 512px; width: 512px;" xmlns="http://www.w3.org/2000/svg" viewBox="0 0 512 512"><path d="M0 0h512v512H0z" fill="#ffffff" fill-opacity="0"></path><g class="" style="" transform="translate(0,1)"><g><path d="M150.156005859375 82.40599822998047C148.33099365234375 82.48999786376953 146.52999877929688 82.8489990234375 144.81199645996094 83.46900177001953L41.09400177001953 121.52999877929688C36.611000061035156 123.17500305175781 32.60100173950195 126.88700103759766 30.5939998626709 131.22000122070312C28.586999893188477 135.5500030517578 28.356000900268555 141.01800537109375 30 145.5L96.72000122070312 327.375C98.36299896240234 331.85699462890625 102.0739974975586 335.89898681640625 106.40599822998047 337.9049987792969C110.73799896240234 339.9129943847656 116.20600128173828 340.1449890136719 120.68599700927734 338.5L224.406005859375 300.43701171875C228.88900756835938 298.7929992675781 232.8990020751953 295.0820007324219 234.906005859375 290.75L234.93600463867188 290.68701171875C236.91799926757812 286.364990234375 237.13600158691406 280.92999267578125 235.5 276.468994140625L168.77999877929688 94.59300231933594C167.14500427246094 90.13300323486328 163.46200561523438 86.10900115966797 159.156005859375 84.09300231933594L159.093994140625 84.06300354003906C156.92799377441406 83.05799865722656 154.4709930419922 82.50700378417969 152 82.40499877929688C151.3820037841797 82.37999725341797 150.77000427246094 82.375 150.156005859375 82.40499877929688Z" class="" fill="#d0021b" fill-opacity="1"></path><path d="M189.22000122070312 96.02999877929688L253.06300354003906 270.0299987792969C256.468994140625 279.3429870605469 256.0419921875 289.62701416015625 251.875 298.625C247.7100067138672 307.614990234375 240.14599609375 314.5840148925781 230.84500122070312 318L203.40499877929688 328.06298828125L263.4049987792969 330.8429870605469C268.17498779296875 331.0660095214844 273.31500244140625 329.1830139160156 276.8450012207031 325.968994140625C280.37298583984375 322.75201416015625 282.7149963378906 317.79901123046875 282.93701171875 313.02899169921875L291.93701171875 119.52899932861328C292.15899658203125 114.76100158691406 290.3089904785156 109.59100341796875 287.093994140625 106.06099700927734C283.87799072265625 102.53099822998047 278.9259948730469 100.19100189208984 274.156005859375 99.96800231933594L189.218994140625 96.02799987792969Z" class="" fill="#4a4a4a" fill-opacity="1"></path><path d="M310.2200012207031 129.27999877929688L301.593994140625 313.906005859375C301.13299560546875 323.80999755859375 296.760986328125 333.12701416015625 289.43798828125 339.81201171875C282.10699462890625 346.4800109863281 272.4289855957031 349.9639892578125 262.531005859375 349.5L236.4709930419922 348.2799987792969L305.8450012207031 371.375C310.375 372.8819885253906 315.85699462890625 372.48199462890625 320.125 370.3450012207031C324.3949890136719 368.2049865722656 327.9630126953125 364.06201171875 329.4700012207031 359.531005859375L390.625 175.7209930419922C392.1319885253906 171.18899536132812 391.73199462890625 165.70799255371094 389.5950012207031 161.43899536132812C387.4549865722656 157.16900634765625 383.31201171875 153.56900024414062 378.781005859375 152.06399536132812L310.22100830078125 129.28199768066406Z" class="" fill="#4a4a4a" fill-opacity="1"></path><path d="M105.15599822998047 147.625C129.61399841308594 172.56100463867188 173.17599487304688 165.36500549316406 185.906005859375 193.15499877929688C197.781005859375 219.08200073242188 171.39599609375 239.16099548339844 147.93600463867188 231.56199645996094L164.93600463867188 262.343994140625L146.156005859375 269.25L135.218994140625 237.56199645996094C124.8290023803711 260.1860046386719 92.16600036621094 261.3080139160156 81.06199645996094 237.03199768066406C67.53199768066406 207.4550018310547 105.08200073242188 182.83200073242188 105.15499877929688 147.625Z" class="selected" fill="#d0021b" fill-opacity="1"></path><path d="M406.593994140625 186.84500122070312L347.2200012207031 365.43701171875C344.09100341796875 374.84100341796875 337.3580017089844 382.6180114746094 328.5 387.06201171875L328.406005859375 387.0920104980469C319.56298828125 391.489013671875 309.3399963378906 392.2080078125 299.968994140625 389.0920104980469L279.5929870605469 382.31201171875L322.9049987792969 419.3420104980469C326.5350036621094 422.4440002441406 331.7699890136719 424.12200927734375 336.5299987792969 423.7489929199219C341.2900085449219 423.375 346.14801025390625 420.90899658203125 349.25 417.27899169921875L475.125 269.968994140625C478.22698974609375 266.3389892578125 479.9049987792969 261.1340026855469 479.531005859375 256.3739929199219C479.15899658203125 251.61399841308594 476.6610107421875 246.7259979248047 473.031005859375 243.62399291992188L406.5950012207031 186.843994140625Z" class="" fill="#4a4a4a" fill-opacity="1"></path></g></g></svg>